# xmcd
#
# Track frame offsets:
#	150
#	31117
#	45344
#	63984
#	80700
#	93345
#	111991
#	133856
#	151248
#	173051
#	190592
#	210579
#	228878
#	240445
#
# Disc length: 3368 seconds
#
# Revision: 2
# Processed by: cddbd v1.5.1PL0 Copyright (c) Steve Scherf et al.
# Submitted via: audiograbber 1.83.01
#
DISCID=a80d260e
DTITLE=Jose feliciano - The Album - Most Famous Hits CD 2
DYEAR=1900
DGENRE=Ballad
TTITLE0=Bamboleo
TTITLE1=Light My Fire
TTITLE2=You send Me
TTITLE3=Angela Mia
TTITLE4=Walk Right In
TTITLE5=Che sera
TTITLE6=Jealous Guy
TTITLE7=The Last Time
TTITLE8=Malaguena
TTITLE9=Daniel
TTITLE10=Right Here Waiting
TTITLE11=And I Love her
TTITLE12=Mystery Train
TTITLE13=Mule Skinner Blues
EXTD=0\n\n\n
EXTT0=
EXTT1=
EXTT2=
EXTT3=
EXTT4=
EXTT5=
EXTT6=
EXTT7=
EXTT8=
EXTT9=
EXTT10=
EXTT11=
EXTT12=
EXTT13=
PLAYORDER=
